<svg width="65" height="65" viewBox="0 0 65 65" fill="none" xmlns="http://www.w3.org/2000/svg">
<path d="M64.5 32.25C64.5 14.4453 50.0547 0 32.25 0C14.4453 0 0 14.4453 0 32.25C0 50.0547 14.4453 64.5 32.25 64.5C50.0547 64.5 64.5 50.0547 64.5 32.25Z" fill="#6B77E5"/>
<path d="M30.1558 48.6562L45.1202 36.2046C45.4233 35.9524 45.6672 35.6366 45.8347 35.2796C46.0021 34.9225 46.0889 34.533 46.0889 34.1386C46.0889 33.7443 46.0021 33.3548 45.8347 32.9977C45.6672 32.6407 45.4233 32.3248 45.1202 32.0726L30.1558 19.6211C29.7634 19.2948 29.2861 19.0869 28.7799 19.0219C28.2737 18.9569 27.7594 19.0373 27.2972 19.2539C26.8351 19.4704 26.4441 19.8141 26.1701 20.2447C25.8961 20.6753 25.7504 21.175 25.75 21.6854V46.5918C25.7504 47.1022 25.8961 47.6019 26.1701 48.0325C26.4441 48.4632 26.8351 48.8068 27.2972 49.0234C27.7594 49.2399 28.2737 49.3204 28.7799 49.2554C29.2861 49.1903 29.7634 48.9825 30.1558 48.6562Z" fill="white"/>
</svg>
